# xmcd CD database file
#
# Track frame offsets:
#	150
#	7690
#	15137
#	22865
#	35920
#	51100
#	56717
#	63507
#	71172
#	75365
#	81392
#	89222
#	114425
#	142337
#	164642
#	179862
#	193842
#	199087
#	201885
#	203252
#	204532
#	207357
#	209242
#	213985
#	215340
#	216887
#	218740
#	221152
#	227587
#	237492
#	243952
#	251205
#	257792
#	263112
#	271602
#	276070
#	282875
#	288387
#	301782
#
# Disc length: 4364 seconds
#
# Revision: 3
# Processed by: cddbd v1.5.2PL0 Copyright (c) Steve Scherf et al.
# Submitted via: CDex 1.51
#
DISCID=65110a27
DTITLE=Rachmaninoff - Piano Sonata N°2, Fantaisie, Variations (Santiago Rodriguez, piano)
DYEAR=2008
DGENRE=Classique
TTITLE0=Piano Sonata N°2 in B flat minor, Op.36 Movement I. Allegro agitato
TTITLE1=Piano Sonata N°2 in B flat minor, Op.36 Movement I. Meno mosso. Measure 38
TTITLE2=Piano Sonata N°2 in B flat minor, Op.36 Movement I. Measure 55
TTITLE3=Piano Sonata N°2 in B flat minor, Op.36 Movement I. Tempo I. Measure 98
TTITLE4=Piano Sonata N°2 in B flat minor, Op.36 Movement II. Non allegro - Lento
TTITLE5=Piano Sonata N°2 in B flat minor, Op.36 Movement II. Poco più mosso. Measure 36
TTITLE6=Piano Sonata N°2 in B flat minor, Op.36 Movement II. Tempo I. Measure 63 - Attacca
TTITLE7=Piano Sonata N°2 in B flat minor, Op.36 Movement III. L'istesso tempo - Allegretto molto
TTITLE8=Piano Sonata N°2 in B flat minor, Op.36 Movement III. A tempo meno mosso. Measure 76
TTITLE9=Piano Sonata N°2 in B flat minor, Op.36 Movement III. Tempo I. Measure 106
TTITLE10=Piano Sonata N°2 in B flat minor, Op.36 Movement III. Tempo rubato. Measure 184
TTITLE11=Morceaux de fantaisie, Op.3 - Élégie. Moderato
TTITLE12=Morceaux de fantaisie, Op.3 - Prélude. Lento
TTITLE13=Morceaux de fantaisie, Op.3 - Mélodie. Adagio sostenuto
TTITLE14=Morceaux de fantaisie, Op.3 - Polichinelle. Allegro vivace
TTITLE15=Morceaux de fantaisie, Op.3 - Sérénade. Sostenuto, tempo di valse
TTITLE16=Variations on a Theme of Chopin, Op.22 - Theme. Largo
TTITLE17=Variations on a Theme of Chopin, Op.22 - Variation I. Moderato
TTITLE18=Variations on a Theme of Chopin, Op.22 - Variation II. Allegro
TTITLE19=Variations on a Theme of Chopin, Op.22 - Variation III
TTITLE20=Variations on a Theme of Chopin, Op.22 - Variation IV
TTITLE21=Variations on a Theme of Chopin, Op.22 - Variation V. Meno mosso
TTITLE22=Variations on a Theme of Chopin, Op.22 - Variation VI. Meno mosso
TTITLE23=Variations on a Theme of Chopin, Op.22 - Variation VII. Allegro
TTITLE24=Variations on a Theme of Chopin, Op.22 - Variation VIII
TTITLE25=Variations on a Theme of Chopin, Op.22 - Variation IX
TTITLE26=Variations on a Theme of Chopin, Op.22 - Variation X. Più vivo
TTITLE27=Variations on a Theme of Chopin, Op.22 - Variation XI. Lento
TTITLE28=Variations on a Theme of Chopin, Op.22 - Variation XII. Moderato
TTITLE29=Variations on a Theme of Chopin, Op.22 - Variation XIII. Largo
TTITLE30=Variations on a Theme of Chopin, Op.22 - Variation XIV. Moderato
TTITLE31=Variations on a Theme of Chopin, Op.22 - Variation XV. Allegro scherzando
TTITLE32=Variations on a Theme of Chopin, Op.22 - Variation XVI. Lento
TTITLE33=Variations on a Theme of Chopin, Op.22 - Variation XVII. Grave
TTITLE34=Variations on a Theme of Chopin, Op.22 - Variation XVIII. Più mosso
TTITLE35=Variations on a Theme of Chopin, Op.22 - Variation XIX. Allegro vivace
TTITLE36=Variations on a Theme of Chopin, Op.22 - Variation XX. Presto
TTITLE37=Variations on a Theme of Chopin, Op.22 - Variation XXI. Andante - Più vivo
TTITLE38=Variations on a Theme of Chopin, Op.22 - Variation XXII. Maestoso
EXTD=YEAR: 2008
EXTT0=
EXTT1=
EXTT2=
EXTT3=
EXTT4=
EXTT5=
EXTT6=
EXTT7=
EXTT8=
EXTT9=
EXTT10=
EXTT11=
EXTT12=
EXTT13=
EXTT14=
EXTT15=
EXTT16=
EXTT17=
EXTT18=
EXTT19=
EXTT20=
EXTT21=
EXTT22=
EXTT23=
EXTT24=
EXTT25=
EXTT26=
EXTT27=
EXTT28=
EXTT29=
EXTT30=
EXTT31=
EXTT32=
EXTT33=
EXTT34=
EXTT35=
EXTT36=
EXTT37=
EXTT38=
PLAYORDER=
